<?xml version="1.0" encoding="utf-8"?>
<!-- Generator: Adobe Illustrator 15.1.0, SVG Export Plug-In . SVG Version: 6.00 Build 0)  -->
<!DOCTYPE svg PUBLIC "-//W3C//DTD SVG 1.1//EN" "http://www.w3.org/Graphics/SVG/1.1/DTD/svg11.dtd">
<svg version="1.1" id="Layer_1" xmlns="http://www.w3.org/2000/svg" xmlns:xlink="http://www.w3.org/1999/xlink" x="0px" y="0px"
	 width="400px" height="100px" viewBox="0 0 400 100" enable-background="new 0 0 400 100" xml:space="preserve">
<path fill="#F1F2F2" d="M48.985,96.986c-12.55,0-24.349-4.888-33.224-13.761C6.887,74.351,2,62.552,2,50.002
	c0-12.55,4.887-24.349,13.761-33.223C24.636,7.905,36.435,3.017,48.985,3.017c12.55,0,24.349,4.888,33.223,13.762
	c8.875,8.874,13.761,20.673,13.761,33.223c0,12.55-4.886,24.349-13.761,33.224C73.334,92.099,61.535,96.986,48.985,96.986z
	 M48.985,7.491c-23.44,0-42.51,19.07-42.51,42.511c0,23.439,19.07,42.51,42.51,42.51c23.44,0,42.51-19.07,42.51-42.51
	C91.495,26.562,72.425,7.491,48.985,7.491z"/>
<g>
	<path fill="#F1F2F2" d="M27.766,65.458c-0.28-0.231-0.549-0.476-0.809-0.734c-0.236-0.237-0.458-0.482-0.67-0.733
		c-2.015,2.397-2.884,5.438-2.604,8.389c0.698,0.334,1.437,0.58,2.203,0.729C25.365,70.472,25.992,67.652,27.766,65.458z"/>
	<path fill="#F1F2F2" d="M36.804,62.176c-0.149-0.755-0.393-1.494-0.73-2.201c-0.355-0.033-0.714-0.051-1.075-0.051
		c-0.363,0-0.723,0.018-1.081,0.052c-0.334,0.697-0.581,1.436-0.731,2.201c0.591-0.116,1.197-0.176,1.812-0.176
		C35.611,62.001,36.215,62.061,36.804,62.176z"/>
	<path fill="#F1F2F2" d="M39.006,62.905c0.613,0.293,1.194,0.656,1.734,1.084c0.288-0.228,0.566-0.473,0.83-0.735
		c0.235-0.233,0.454-0.48,0.66-0.735c-1.112-0.92-2.376-1.609-3.729-2.044C38.758,61.267,38.929,62.082,39.006,62.905z"/>
	<path fill="#F1F2F2" d="M41.57,77.868c-1.755,1.756-4.09,2.722-6.572,2.722s-4.817-0.966-6.572-2.722
		c-0.766-0.767-1.367-1.633-1.809-2.559c-0.833-0.077-1.646-0.247-2.429-0.499c0.535,1.656,1.456,3.213,2.769,4.526
		c2.148,2.147,5.004,3.33,8.041,3.33s5.894-1.183,8.041-3.33c1.292-1.292,2.231-2.841,2.778-4.529
		c-0.784,0.253-1.598,0.424-2.432,0.502C42.937,76.246,42.327,77.111,41.57,77.868z"/>
	<path fill="#F1F2F2" d="M29.256,63.989c0.539-0.426,1.118-0.788,1.729-1.081c0.078-0.834,0.249-1.647,0.501-2.432
		c-1.35,0.437-2.609,1.123-3.72,2.042c0.206,0.254,0.425,0.502,0.66,0.734C28.689,63.517,28.967,63.762,29.256,63.989z"/>
	<path fill="#F1F2F2" d="M46.339,70.496c-1.177-1.681-1.872-3.639-2.015-5.708c-0.192-0.274-0.396-0.54-0.614-0.799
		c-0.213,0.252-0.435,0.497-0.671,0.734c-0.259,0.259-0.529,0.503-0.809,0.734c1.335,1.648,2.062,3.687,2.062,5.837
		c0,0.616-0.06,1.222-0.175,1.813c0.765-0.15,1.503-0.396,2.202-0.731c0.034-0.356,0.051-0.717,0.051-1.081
		C46.37,71.026,46.357,70.761,46.339,70.496z"/>
	<path fill="#F1F2F2" d="M21.12,70.562c-1.756-1.755-2.723-4.091-2.723-6.572c0-2.483,0.967-4.816,2.723-6.573
		c0.756-0.757,1.621-1.365,2.558-1.814c0.078-0.834,0.249-1.648,0.502-2.432c-1.689,0.546-3.238,1.486-4.529,2.778
		c-2.148,2.147-3.331,5.003-3.331,8.041c0,3.036,1.183,5.893,3.331,8.04c1.294,1.295,2.845,2.235,4.538,2.781
		c-0.256-0.795-0.427-1.608-0.505-2.432C22.744,71.929,21.877,71.318,21.12,70.562z"/>
	<path fill="#F1F2F2" d="M38.501,60.475c-0.429-1.328-1.106-2.592-2.035-3.718c-0.254,0.206-0.5,0.425-0.734,0.659
		c-0.264,0.265-0.508,0.542-0.735,0.83c0.428,0.543,0.787,1.123,1.076,1.729C36.906,60.052,37.719,60.222,38.501,60.475z"/>
	<path fill="#F1F2F2" d="M39.006,62.905c-0.699-0.335-1.438-0.58-2.203-0.729c0.236,1.196,0.236,2.43,0,3.626
		c0.766-0.149,1.504-0.396,2.203-0.729C39.075,64.352,39.075,63.626,39.006,62.905z"/>
	<path fill="#F1F2F2" d="M34.998,69.73c0.228,0.288,0.472,0.567,0.735,0.831c0.234,0.233,0.479,0.454,0.734,0.658
		c0.929-1.125,1.606-2.389,2.035-3.716c-0.783,0.252-1.596,0.422-2.428,0.499C35.784,68.608,35.425,69.188,34.998,69.73z"/>
	<path fill="#F1F2F2" d="M33.529,56.757c0.231-0.28,0.476-0.551,0.735-0.809c0.236-0.237,0.482-0.459,0.734-0.671
		c-0.258-0.218-0.525-0.422-0.799-0.613c-2.069-0.144-4.028-0.84-5.708-2.016c-0.265-0.02-0.531-0.03-0.799-0.03
		c-0.363,0-0.724,0.016-1.081,0.05c-0.335,0.698-0.581,1.437-0.731,2.201c0.59-0.115,1.197-0.175,1.812-0.175
		C29.842,54.694,31.881,55.42,33.529,56.757z"/>
	<path fill="#F1F2F2" d="M34.998,72.7c-0.252-0.212-0.498-0.435-0.734-0.671c-0.259-0.26-0.504-0.528-0.735-0.809
		c-1.648,1.336-3.687,2.063-5.837,2.063c-0.613,0-1.217-0.059-1.805-0.175c0.149,0.755,0.393,1.495,0.73,2.201
		c0.355,0.033,0.714,0.052,1.075,0.052C30.395,75.361,32.954,74.422,34.998,72.7z"/>
	<path fill="#F1F2F2" d="M34.998,69.73c-0.425-0.538-0.788-1.117-1.08-1.728c-0.833-0.078-1.647-0.249-2.431-0.502
		c0.437,1.349,1.124,2.609,2.042,3.72c0.255-0.205,0.5-0.425,0.735-0.659C34.529,70.296,34.772,70.018,34.998,69.73z"/>
	<path fill="#F1F2F2" d="M36.467,56.757c1.648-1.336,3.687-2.063,5.838-2.063c0.615,0,1.221,0.06,1.812,0.175
		c-0.151-0.765-0.397-1.503-0.732-2.201c-0.357-0.034-0.717-0.05-1.08-0.05c-0.269,0-0.535,0.011-0.8,0.03
		c-1.679,1.176-3.639,1.872-5.708,2.016c-0.273,0.191-0.541,0.396-0.799,0.613c0.252,0.212,0.498,0.434,0.735,0.671
		C35.993,56.208,36.237,56.479,36.467,56.757z"/>
	<path fill="#F1F2F2" d="M34.998,58.246c-0.226-0.287-0.469-0.564-0.734-0.83c-0.234-0.234-0.48-0.454-0.735-0.659
		c-0.918,1.109-1.606,2.369-2.043,3.72c0.784-0.253,1.598-0.424,2.432-0.501C34.21,59.364,34.572,58.787,34.998,58.246z"/>
	<path fill="#F1F2F2" d="M48.985,54.785c-0.97-0.707-2.038-1.25-3.168-1.615c0.253,0.783,0.423,1.598,0.502,2.432
		c0.366,0.175,0.721,0.376,1.063,0.6c0.08-0.084,0.159-0.171,0.242-0.253C48.051,55.52,48.506,55.134,48.985,54.785z"/>
	<path fill="#F1F2F2" d="M33.186,62.177c-0.765,0.15-1.503,0.396-2.202,0.731c-0.034,0.356-0.051,0.718-0.051,1.081
		c0,0.362,0.018,0.724,0.051,1.081c0.698,0.334,1.437,0.581,2.202,0.73c-0.116-0.591-0.176-1.196-0.176-1.812
		S33.07,62.767,33.186,62.177z"/>
	<path fill="#F1F2F2" d="M36.467,71.22c-0.23,0.279-0.474,0.549-0.734,0.81c-0.237,0.236-0.482,0.458-0.735,0.671
		c2.045,1.722,4.603,2.661,7.307,2.661c0.363,0,0.723-0.019,1.08-0.052c0.334-0.699,0.581-1.437,0.732-2.202
		c-0.591,0.116-1.197,0.176-1.812,0.176C40.153,73.283,38.114,72.557,36.467,71.22z"/>
	<path fill="#F1F2F2" d="M47.381,71.775c-0.342,0.224-0.696,0.426-1.063,0.601c-0.079,0.834-0.249,1.646-0.502,2.432
		c1.13-0.367,2.198-0.908,3.168-1.614c-0.479-0.351-0.935-0.737-1.362-1.164C47.541,71.947,47.461,71.861,47.381,71.775z"/>
	<path fill="#F1F2F2" d="M53.646,64.792c0.019-0.267,0.031-0.534,0.031-0.803s-0.012-0.535-0.031-0.801
		c-1.177-1.679-1.873-3.638-2.015-5.707c-0.314-0.447-0.661-0.875-1.042-1.28c-0.533,0.35-1.034,0.755-1.495,1.215
		c-0.037,0.038-0.072,0.076-0.108,0.113c1.686,1.742,2.615,4.029,2.615,6.46c0,2.43-0.929,4.717-2.615,6.459
		c0.036,0.037,0.071,0.076,0.108,0.113c0.461,0.46,0.962,0.865,1.495,1.214c0.383-0.406,0.733-0.838,1.049-1.289
		C51.779,68.481,52.448,66.508,53.646,64.792z"/>
	<path fill="#F1F2F2" d="M45.817,53.17c-0.366-1.13-0.908-2.198-1.615-3.168c-0.349,0.479-0.736,0.935-1.163,1.361
		c-0.083,0.083-0.169,0.162-0.254,0.242c0.224,0.341,0.425,0.695,0.6,1.063C44.219,52.747,45.033,52.916,45.817,53.17z"/>
	<path fill="#F1F2F2" d="M26.287,63.99c0.211-0.253,0.433-0.5,0.67-0.737c0.259-0.259,0.529-0.503,0.809-0.734
		c-1.336-1.646-2.063-3.687-2.063-5.836c0-0.616,0.06-1.223,0.176-1.813c-0.765,0.151-1.504,0.396-2.202,0.732
		c-0.033,0.357-0.051,0.717-0.051,1.081C23.626,59.386,24.566,61.944,26.287,63.99z"/>
	<path fill="#F1F2F2" d="M41.458,50.002c0.037-0.037,0.076-0.071,0.113-0.107c0.461-0.461,0.866-0.962,1.215-1.496
		c-0.404-0.381-0.833-0.729-1.28-1.042c-2.069-0.143-4.028-0.839-5.708-2.016c-0.266-0.018-0.531-0.031-0.8-0.031
		c-0.268,0-0.534,0.013-0.799,0.031c-1.679,1.177-3.639,1.873-5.708,2.016c-0.448,0.313-0.875,0.662-1.28,1.042
		c0.35,0.533,0.754,1.034,1.215,1.496c0.037,0.037,0.076,0.071,0.113,0.107c1.742-1.686,4.029-2.614,6.459-2.614
		C37.429,47.388,39.715,48.316,41.458,50.002z"/>
	<path fill="#F1F2F2" d="M40.741,63.989c-0.541,0.426-1.121,0.789-1.734,1.083c-0.078,0.822-0.248,1.638-0.505,2.432
		c1.353-0.437,2.616-1.126,3.729-2.046c-0.206-0.255-0.425-0.5-0.66-0.734C41.307,64.459,41.029,64.216,40.741,63.989z"/>
	<path fill="#F1F2F2" d="M46.319,55.602c-0.698-0.336-1.437-0.581-2.202-0.732c0.116,0.591,0.175,1.197,0.175,1.813
		c0,2.149-0.727,4.189-2.062,5.836c0.279,0.231,0.549,0.476,0.809,0.734c0.236,0.236,0.458,0.483,0.671,0.736
		c0.218-0.259,0.422-0.526,0.614-0.801c0.143-2.067,0.838-4.028,2.015-5.707c0.018-0.266,0.031-0.531,0.031-0.799
		C46.37,56.318,46.353,55.959,46.319,55.602z"/>
	<path fill="#F1F2F2" d="M33.186,65.801c0.15,0.766,0.397,1.503,0.731,2.202c0.357,0.033,0.717,0.052,1.081,0.052
		c0.361,0,0.72-0.019,1.075-0.052c0.337-0.706,0.581-1.445,0.73-2.201c-0.588,0.115-1.193,0.176-1.806,0.176
		C34.383,65.978,33.777,65.917,33.186,65.801z"/>
	<path fill="#F1F2F2" d="M29.256,63.989c-0.289,0.227-0.567,0.47-0.83,0.734c-0.235,0.234-0.455,0.48-0.66,0.734
		c1.111,0.918,2.371,1.605,3.72,2.043c-0.253-0.784-0.424-1.598-0.502-2.431C30.374,64.777,29.795,64.414,29.256,63.989z"/>
	<path fill="#F1F2F2" d="M27.211,51.605c-0.085-0.08-0.17-0.159-0.254-0.242c-0.426-0.427-0.813-0.883-1.163-1.361
		c-0.707,0.97-1.249,2.038-1.615,3.168c0.784-0.254,1.598-0.423,2.431-0.502C26.786,52.301,26.987,51.946,27.211,51.605z"/>
	<path fill="#F1F2F2" d="M40.741,36.015c0.288-0.228,0.566-0.471,0.83-0.734c0.234-0.235,0.454-0.481,0.66-0.735
		c-1.111-0.918-2.37-1.606-3.72-2.043c0.253,0.785,0.424,1.598,0.502,2.432C39.623,35.228,40.201,35.59,40.741,36.015z"/>
	<path fill="#F1F2F2" d="M34.199,54.664c0.265,0.017,0.532,0.03,0.799,0.03c0.269,0,0.534-0.014,0.799-0.03
		c1.68-1.178,3.639-1.874,5.708-2.016c0.447-0.315,0.875-0.663,1.28-1.043c-0.349-0.533-0.754-1.035-1.215-1.496
		c-0.037-0.036-0.076-0.071-0.113-0.107c-1.742,1.687-4.029,2.616-6.459,2.616c-2.43,0-4.717-0.93-6.459-2.616
		c-0.037,0.037-0.077,0.071-0.113,0.107c-0.461,0.461-0.865,0.963-1.215,1.496c0.404,0.38,0.832,0.728,1.28,1.043
		C30.56,52.79,32.52,53.486,34.199,54.664z"/>
	<path fill="#F1F2F2" d="M44.202,50.002c0.707-0.97,1.25-2.037,1.615-3.168c-0.784,0.253-1.598,0.424-2.431,0.502
		c-0.176,0.366-0.376,0.722-0.601,1.063c0.085,0.08,0.171,0.159,0.254,0.242C43.466,49.067,43.853,49.523,44.202,50.002z"/>
	<path fill="#F1F2F2" d="M29.256,36.015c0.539-0.425,1.118-0.788,1.729-1.081c0.078-0.833,0.249-1.647,0.501-2.432
		c-1.35,0.437-2.609,1.125-3.72,2.043c0.206,0.254,0.425,0.5,0.66,0.735C28.689,35.544,28.967,35.788,29.256,36.015z"/>
	<path fill="#F1F2F2" d="M36.811,34.204c-0.15-0.766-0.396-1.504-0.731-2.202c-0.357-0.034-0.717-0.051-1.081-0.051
		c-0.363,0-0.723,0.018-1.081,0.051c-0.334,0.698-0.581,1.437-0.731,2.202c0.591-0.116,1.197-0.176,1.812-0.176
		C35.614,34.028,36.22,34.087,36.811,34.204z"/>
	<path fill="#F1F2F2" d="M27.211,48.399c-0.224-0.342-0.425-0.697-0.601-1.063c-0.833-0.078-1.647-0.249-2.431-0.502
		c0.366,1.131,0.908,2.199,1.615,3.168c0.349-0.479,0.736-0.935,1.163-1.361C27.041,48.558,27.126,48.479,27.211,48.399z"/>
	<path fill="#F1F2F2" d="M27.766,37.484c-0.28-0.23-0.549-0.475-0.809-0.735c-0.236-0.236-0.458-0.482-0.671-0.734
		c-1.72,2.045-2.66,4.603-2.66,7.307c0,0.363,0.018,0.723,0.051,1.081c0.698,0.335,1.437,0.581,2.202,0.731
		c-0.116-0.59-0.176-1.196-0.176-1.812C25.704,41.171,26.43,39.133,27.766,37.484z"/>
	<path fill="#F1F2F2" d="M42.23,37.484c1.335,1.648,2.062,3.687,2.062,5.838c0,0.615-0.06,1.221-0.175,1.812
		c0.765-0.15,1.503-0.396,2.202-0.731c0.034-0.357,0.051-0.718,0.051-1.081c0-0.268-0.013-0.535-0.031-0.8
		c-1.177-1.68-1.872-3.639-2.015-5.708c-0.192-0.274-0.396-0.541-0.614-0.799c-0.212,0.252-0.435,0.499-0.67,0.734
		C42.78,37.009,42.51,37.254,42.23,37.484z"/>
	<path fill="#F1F2F2" d="M28.491,47.356c1.679-1.177,3.639-1.873,5.708-2.016c0.274-0.192,0.542-0.396,0.799-0.614
		c-0.252-0.211-0.498-0.434-0.734-0.67c-0.259-0.26-0.504-0.53-0.735-0.809c-1.648,1.335-3.687,2.063-5.837,2.063
		c-0.615,0-1.222-0.06-1.812-0.176c0.15,0.765,0.396,1.503,0.731,2.202c0.357,0.034,0.718,0.052,1.081,0.052
		C27.96,47.387,28.226,47.375,28.491,47.356z"/>
	<path fill="#F1F2F2" d="M21.12,42.588c-1.756-1.756-2.723-4.09-2.723-6.573s0.967-4.816,2.723-6.572
		c0.756-0.757,1.621-1.366,2.558-1.816c0.078-0.833,0.249-1.646,0.502-2.431c-1.689,0.546-3.238,1.486-4.529,2.777
		c-2.148,2.148-3.331,5.003-3.331,8.041c0,3.038,1.183,5.894,3.331,8.042c1.292,1.292,2.84,2.23,4.529,2.777
		c-0.254-0.784-0.424-1.597-0.502-2.431C22.741,43.954,21.875,43.345,21.12,42.588z"/>
	<path fill="#F1F2F2" d="M36.811,37.827c0.765-0.15,1.503-0.396,2.202-0.731c0.033-0.357,0.051-0.718,0.051-1.081
		s-0.019-0.724-0.051-1.081c-0.698-0.335-1.437-0.581-2.202-0.731c0.115,0.59,0.176,1.196,0.176,1.812
		C36.986,36.631,36.926,37.237,36.811,37.827z"/>
	<path fill="#F1F2F2" d="M36.08,40.029c-0.293,0.611-0.656,1.19-1.082,1.729c0.228,0.289,0.471,0.566,0.735,0.831
		c0.234,0.235,0.48,0.454,0.735,0.66c0.918-1.11,1.606-2.371,2.042-3.721C37.726,39.781,36.913,39.951,36.08,40.029z"/>
	<path fill="#F1F2F2" d="M33.529,28.782c0.231-0.278,0.476-0.549,0.735-0.808c0.236-0.236,0.482-0.458,0.734-0.671
		c-2.044-1.721-4.603-2.66-7.307-2.66c-0.363,0-0.724,0.018-1.081,0.052c-0.334,0.698-0.581,1.436-0.731,2.201
		c0.59-0.116,1.197-0.175,1.812-0.175C29.842,26.721,31.881,27.447,33.529,28.782z"/>
	<path fill="#F1F2F2" d="M34.998,30.273c0.426,0.539,0.788,1.118,1.081,1.729c0.833,0.078,1.647,0.248,2.431,0.501
		c-0.437-1.35-1.124-2.609-2.042-3.721c-0.254,0.207-0.501,0.426-0.735,0.661C35.469,29.707,35.226,29.984,34.998,30.273z"/>
	<path fill="#F1F2F2" d="M34.998,41.757c-0.425-0.539-0.788-1.118-1.081-1.729c-0.833-0.078-1.647-0.248-2.432-0.502
		c0.437,1.35,1.125,2.611,2.043,3.721c0.255-0.206,0.5-0.425,0.735-0.66C34.528,42.324,34.771,42.046,34.998,41.757z"/>
	<path fill="#F1F2F2" d="M33.186,34.204c-0.765,0.15-1.503,0.396-2.202,0.731c-0.034,0.357-0.051,0.717-0.051,1.081
		s0.018,0.724,0.051,1.081c0.698,0.334,1.437,0.581,2.202,0.731c-0.116-0.59-0.176-1.196-0.176-1.812
		C33.01,35.4,33.07,34.794,33.186,34.204z"/>
	<path fill="#F1F2F2" d="M47.382,28.229c0.08-0.085,0.159-0.172,0.241-0.254c0.428-0.427,0.883-0.814,1.362-1.163
		c-0.97-0.707-2.038-1.25-3.168-1.615c0.253,0.784,0.423,1.598,0.502,2.431C46.685,27.804,47.04,28.004,47.382,28.229z"/>
	<path fill="#F1F2F2" d="M48.985,42.475c0.036,0.037,0.071,0.076,0.108,0.113c0.461,0.461,0.962,0.866,1.495,1.214
		c0.381-0.405,0.729-0.832,1.042-1.28c0.143-2.069,0.838-4.028,2.015-5.708c0.019-0.264,0.031-0.531,0.031-0.799
		c0-0.268-0.012-0.534-0.031-0.799c-1.177-1.68-1.873-3.64-2.015-5.708c-0.314-0.448-0.661-0.875-1.042-1.28
		c-0.533,0.349-1.035,0.754-1.496,1.215c-0.037,0.037-0.072,0.075-0.108,0.113c1.686,1.743,2.615,4.029,2.615,6.459
		C51.6,38.446,50.671,40.732,48.985,42.475z"/>
	<path fill="#F1F2F2" d="M34.998,30.273c-0.227-0.289-0.47-0.566-0.734-0.83c-0.234-0.235-0.48-0.455-0.735-0.661
		c-0.918,1.111-1.606,2.371-2.043,3.721c0.784-0.253,1.598-0.423,2.432-0.501C34.21,31.391,34.573,30.812,34.998,30.273z"/>
	<path fill="#F1F2F2" d="M45.817,46.833c1.13-0.366,2.198-0.907,3.168-1.614c-0.479-0.349-0.935-0.736-1.362-1.163
		c-0.083-0.083-0.162-0.169-0.242-0.254c-0.342,0.224-0.696,0.425-1.063,0.601C46.24,45.236,46.07,46.05,45.817,46.833z"/>
	<path fill="#F1F2F2" d="M43.386,47.335c0.334-0.698,0.581-1.437,0.731-2.202c-0.591,0.116-1.197,0.176-1.812,0.176
		c-2.151,0-4.19-0.727-5.837-2.063c-0.231,0.279-0.476,0.549-0.735,0.809c-0.237,0.236-0.482,0.458-0.735,0.67
		c0.258,0.218,0.526,0.422,0.8,0.614c2.069,0.143,4.028,0.838,5.708,2.016c0.265,0.018,0.531,0.031,0.8,0.031
		C42.668,47.388,43.028,47.369,43.386,47.335z"/>
	<path fill="#F1F2F2" d="M34.998,27.303c0.252,0.213,0.498,0.435,0.735,0.671c0.259,0.259,0.503,0.53,0.735,0.808
		c1.647-1.335,3.687-2.061,5.837-2.061c0.615,0,1.221,0.06,1.812,0.175c-0.151-0.765-0.397-1.503-0.732-2.201
		c-0.357-0.034-0.717-0.052-1.08-0.052C39.602,24.644,37.043,25.583,34.998,27.303z"/>
	<path fill="#F1F2F2" d="M42.23,34.546c0.279,0.231,0.549,0.476,0.809,0.735c0.236,0.236,0.458,0.482,0.67,0.734
		c0.218-0.258,0.422-0.525,0.614-0.799c0.143-2.07,0.838-4.029,2.015-5.708c0.018-0.265,0.031-0.532,0.031-0.799
		c0-0.364-0.017-0.724-0.051-1.082c-0.698-0.334-1.437-0.581-2.202-0.731c0.116,0.591,0.175,1.197,0.175,1.813
		C44.292,30.859,43.566,32.898,42.23,34.546z"/>
	<path fill="#F1F2F2" d="M36.08,40.029c0.334-0.699,0.581-1.437,0.731-2.202c-0.591,0.116-1.197,0.176-1.813,0.176
		s-1.221-0.06-1.812-0.176c0.15,0.765,0.396,1.503,0.731,2.202c0.357,0.033,0.717,0.051,1.081,0.051
		C35.362,40.08,35.722,40.063,36.08,40.029z"/>
	<path fill="#F1F2F2" d="M38.51,39.527c1.35-0.437,2.609-1.124,3.72-2.042c-0.206-0.254-0.426-0.5-0.66-0.735
		c-0.264-0.264-0.542-0.507-0.83-0.734c-0.54,0.425-1.118,0.788-1.729,1.081C38.934,37.93,38.764,38.743,38.51,39.527z"/>
	<path fill="#F1F2F2" d="M26.286,36.015c0.213-0.252,0.435-0.498,0.671-0.734c0.26-0.259,0.529-0.504,0.809-0.735
		c-1.336-1.648-2.063-3.687-2.063-5.837c0-0.616,0.06-1.222,0.176-1.813c-0.765,0.15-1.504,0.396-2.202,0.731
		c-0.033,0.357-0.051,0.718-0.051,1.082C23.626,31.413,24.566,33.971,26.286,36.015z"/>
	<path fill="#F1F2F2" d="M29.256,36.015c-0.289,0.228-0.566,0.471-0.83,0.734c-0.235,0.235-0.454,0.481-0.66,0.735
		c1.11,0.919,2.37,1.606,3.72,2.042c-0.253-0.784-0.423-1.597-0.501-2.431C30.374,36.804,29.795,36.44,29.256,36.015z"/>
	<path fill="#F1F2F2" d="M28.426,22.136c1.755-1.755,4.09-2.722,6.572-2.722c2.483,0,4.817,0.967,6.572,2.722
		c0.756,0.757,1.366,1.621,1.815,2.559c0.834,0.078,1.648,0.248,2.432,0.501c-0.546-1.689-1.486-3.238-2.778-4.529
		c-2.147-2.147-5.004-3.331-8.041-3.331s-5.893,1.183-8.041,3.331c-1.292,1.292-2.231,2.84-2.777,4.529
		c0.784-0.253,1.598-0.424,2.431-0.501C27.06,23.757,27.669,22.893,28.426,22.136z"/>
	<path fill="#F1F2F2" d="M55.739,65.458c-0.28-0.231-0.549-0.476-0.809-0.734c-0.236-0.237-0.458-0.482-0.67-0.733
		c-0.218,0.259-0.423,0.527-0.615,0.802c-0.143,2.063-0.836,4.018-2.009,5.694c-0.045,0.631-0.04,1.264,0.02,1.893
		c0.699,0.334,1.438,0.58,2.203,0.729C53.339,70.472,53.965,67.652,55.739,65.458z"/>
	<path fill="#F1F2F2" d="M66.98,62.905c0.613,0.293,1.193,0.656,1.734,1.084c0.288-0.228,0.566-0.473,0.83-0.735
		c0.234-0.233,0.454-0.48,0.66-0.735c-1.112-0.92-2.376-1.609-3.728-2.044C66.731,61.267,66.902,62.082,66.98,62.905z"/>
	<path fill="#F1F2F2" d="M59.459,60.477c-1.35,0.437-2.609,1.123-3.72,2.042c0.206,0.254,0.426,0.502,0.66,0.734
		c0.264,0.264,0.542,0.509,0.83,0.736c0.54-0.426,1.119-0.788,1.729-1.081C59.036,62.074,59.206,61.261,59.459,60.477z"/>
	<path fill="#F1F2F2" d="M69.544,77.868c-1.756,1.756-4.09,2.722-6.573,2.722s-4.816-0.966-6.572-2.722
		c-0.764-0.767-1.366-1.633-1.809-2.559c-0.833-0.077-1.646-0.247-2.429-0.499c0.536,1.656,1.457,3.213,2.77,4.526
		c2.148,2.147,5.003,3.33,8.041,3.33s5.894-1.183,8.042-3.33c1.292-1.292,2.231-2.841,2.778-4.529
		c-0.784,0.253-1.598,0.424-2.432,0.502C70.91,76.246,70.3,77.111,69.544,77.868z"/>
	<path fill="#F1F2F2" d="M61.891,59.976c-0.335,0.697-0.582,1.436-0.731,2.201c0.59-0.116,1.196-0.176,1.812-0.176
		c0.613,0,1.217,0.06,1.805,0.175c-0.149-0.755-0.393-1.494-0.73-2.201c-0.355-0.033-0.714-0.051-1.075-0.051
		C62.608,59.924,62.248,59.941,61.891,59.976z"/>
	<path fill="#F1F2F2" d="M71.683,63.989c-0.212,0.252-0.435,0.497-0.67,0.734c-0.26,0.259-0.53,0.503-0.809,0.734
		c1.335,1.648,2.062,3.687,2.062,5.837c0,0.616-0.059,1.222-0.175,1.813c0.765-0.15,1.503-0.396,2.202-0.731
		c0.034-0.356,0.052-0.717,0.052-1.081C74.344,68.591,73.404,66.033,71.683,63.989z"/>
	<path fill="#F1F2F2" d="M54.584,52.668c-0.334,0.698-0.581,1.437-0.731,2.201c0.59-0.115,1.197-0.175,1.812-0.175
		c2.15,0,4.189,0.726,5.837,2.063c0.23-0.28,0.476-0.551,0.734-0.809c0.236-0.237,0.482-0.459,0.735-0.671
		c-0.258-0.218-0.525-0.422-0.799-0.613c-2.069-0.144-4.029-0.84-5.708-2.016c-0.265-0.02-0.531-0.03-0.799-0.03
		C55.301,52.618,54.941,52.634,54.584,52.668z"/>
	<path fill="#F1F2F2" d="M62.971,69.73c0.228,0.288,0.471,0.567,0.735,0.831c0.234,0.233,0.479,0.454,0.734,0.658
		c0.929-1.125,1.606-2.389,2.036-3.716c-0.784,0.252-1.597,0.422-2.429,0.499C63.757,68.608,63.398,69.188,62.971,69.73z"/>
	<path fill="#F1F2F2" d="M52.153,53.17c-1.131,0.365-2.198,0.908-3.168,1.615c0.479,0.349,0.934,0.735,1.361,1.163
		c0.083,0.082,0.162,0.169,0.242,0.253c0.342-0.224,0.696-0.425,1.063-0.6C51.729,54.768,51.899,53.953,52.153,53.17z"/>
	<path fill="#F1F2F2" d="M62.971,58.246c0.427,0.543,0.786,1.123,1.075,1.729c0.833,0.077,1.646,0.247,2.429,0.5
		c-0.43-1.328-1.106-2.592-2.036-3.718c-0.254,0.206-0.5,0.425-0.734,0.659C63.442,57.681,63.199,57.958,62.971,58.246z"/>
	<path fill="#F1F2F2" d="M64.777,65.802c0.766-0.149,1.505-0.396,2.203-0.729c0.068-0.721,0.068-1.446,0-2.167
		c-0.698-0.335-1.437-0.58-2.203-0.729C65.014,63.372,65.014,64.605,64.777,65.802z"/>
	<path fill="#F1F2F2" d="M62.972,72.7c-0.252-0.213-0.499-0.435-0.735-0.671c-0.259-0.26-0.504-0.528-0.734-0.809
		c-1.648,1.336-3.687,2.063-5.837,2.063c-0.614,0-1.217-0.059-1.806-0.175c0.149,0.755,0.394,1.495,0.731,2.201
		c0.355,0.033,0.713,0.052,1.075,0.052C58.368,75.361,60.927,74.421,62.972,72.7z"/>
	<path fill="#F1F2F2" d="M50.588,71.775c-0.08,0.086-0.159,0.171-0.242,0.254c-0.427,0.427-0.882,0.813-1.361,1.164
		c0.972,0.708,2.042,1.251,3.176,1.617c-0.256-0.794-0.427-1.608-0.505-2.432C51.288,72.203,50.932,72,50.588,71.775z"/>
	<path fill="#F1F2F2" d="M48.985,57.529c-0.036-0.037-0.071-0.075-0.108-0.113c-0.46-0.46-0.963-0.865-1.496-1.215
		c-0.38,0.405-0.729,0.833-1.042,1.28c-0.143,2.069-0.838,4.028-2.015,5.707c-0.019,0.266-0.031,0.532-0.031,0.801
		c0,0.268,0.012,0.533,0.031,0.799c1.177,1.68,1.873,3.639,2.015,5.708c0.314,0.447,0.662,0.876,1.042,1.279
		c0.533-0.349,1.035-0.754,1.496-1.214c0.037-0.037,0.072-0.077,0.108-0.113c-1.686-1.742-2.615-4.029-2.615-6.459
		C46.37,61.559,47.299,59.271,48.985,57.529z"/>
	<path fill="#F1F2F2" d="M61.891,59.976c0.292-0.611,0.654-1.188,1.08-1.729c-0.226-0.287-0.469-0.564-0.734-0.83
		c-0.234-0.234-0.48-0.454-0.734-0.659c-0.919,1.109-1.606,2.369-2.043,3.72C60.244,60.224,61.057,60.053,61.891,59.976z"/>
	<path fill="#F1F2F2" d="M73.791,53.17c0.253,0.783,0.423,1.598,0.501,2.432c0.938,0.449,1.802,1.059,2.559,1.814
		c1.755,1.757,2.722,4.09,2.722,6.573c0,2.481-0.967,4.817-2.722,6.572c-0.757,0.755-1.621,1.365-2.559,1.814
		c-0.078,0.834-0.249,1.646-0.501,2.432c1.689-0.547,3.237-1.486,4.529-2.778c2.148-2.147,3.331-5.004,3.331-8.04
		c0-3.038-1.183-5.894-3.331-8.041C77.028,54.656,75.479,53.716,73.791,53.17z"/>
	<path fill="#F1F2F2" d="M69.479,52.648c-1.68,1.176-3.64,1.872-5.708,2.016c-0.274,0.191-0.541,0.396-0.799,0.613
		c0.252,0.212,0.499,0.434,0.734,0.671c0.26,0.26,0.504,0.53,0.734,0.809c1.648-1.336,3.687-2.063,5.838-2.063
		c0.615,0,1.222,0.06,1.812,0.175c-0.151-0.765-0.396-1.503-0.731-2.201c-0.357-0.034-0.718-0.05-1.081-0.05
		C70.01,52.618,69.744,52.629,69.479,52.648z"/>
	<path fill="#F1F2F2" d="M64.44,71.22c-0.229,0.279-0.474,0.549-0.734,0.81c-0.236,0.236-0.482,0.458-0.734,0.671
		c2.044,1.721,4.603,2.661,7.307,2.661c0.363,0,0.723-0.019,1.081-0.052c0.335-0.699,0.581-1.437,0.731-2.202
		c-0.59,0.116-1.196,0.176-1.812,0.176C68.127,73.283,66.088,72.557,64.44,71.22z"/>
	<path fill="#F1F2F2" d="M62.971,69.73c-0.426-0.538-0.788-1.117-1.08-1.728c-0.834-0.078-1.647-0.249-2.432-0.502
		c0.437,1.349,1.125,2.609,2.043,3.72c0.254-0.205,0.5-0.425,0.734-0.659C62.502,70.296,62.745,70.018,62.971,69.73z"/>
	<path fill="#F1F2F2" d="M61.16,62.177c-0.765,0.15-1.504,0.396-2.202,0.731c-0.034,0.356-0.052,0.718-0.052,1.081
		c0,0.362,0.018,0.724,0.052,1.081c0.698,0.334,1.437,0.581,2.202,0.73c-0.116-0.591-0.176-1.196-0.176-1.812
		S61.043,62.767,61.16,62.177z"/>
	<path fill="#F1F2F2" d="M72.266,56.683c0,2.149-0.727,4.189-2.062,5.836c0.279,0.231,0.549,0.476,0.809,0.734
		c0.236,0.236,0.458,0.483,0.67,0.736c1.721-2.046,2.661-4.604,2.661-7.307c0-0.364-0.018-0.724-0.052-1.081
		c-0.698-0.336-1.437-0.581-2.202-0.732C72.207,55.46,72.266,56.066,72.266,56.683z"/>
	<path fill="#F1F2F2" d="M55.739,62.519c-1.335-1.646-2.062-3.687-2.062-5.836c0-0.616,0.06-1.223,0.176-1.813
		c-0.766,0.151-1.504,0.396-2.202,0.732c-0.034,0.357-0.051,0.717-0.051,1.081c0,0.268,0.012,0.533,0.03,0.799
		c1.178,1.679,1.873,3.64,2.015,5.707c0.192,0.274,0.397,0.543,0.615,0.802c0.211-0.253,0.433-0.5,0.67-0.737
		C55.189,62.994,55.459,62.75,55.739,62.519z"/>
	<path fill="#F1F2F2" d="M70.759,51.605c0.224,0.341,0.424,0.695,0.6,1.063c0.834,0.079,1.647,0.248,2.432,0.502
		c-0.366-1.13-0.908-2.198-1.615-3.168c-0.35,0.479-0.736,0.935-1.163,1.361C70.93,51.446,70.844,51.525,70.759,51.605z"/>
	<path fill="#F1F2F2" d="M57.229,63.989c-0.288,0.227-0.566,0.47-0.83,0.734c-0.235,0.234-0.455,0.48-0.66,0.734
		c1.111,0.918,2.37,1.605,3.72,2.043c-0.253-0.784-0.423-1.598-0.501-2.431C58.347,64.777,57.769,64.414,57.229,63.989z"/>
	<path fill="#F1F2F2" d="M61.16,65.801c0.15,0.766,0.396,1.503,0.731,2.202c0.357,0.033,0.717,0.052,1.081,0.052
		c0.361,0,0.719-0.019,1.075-0.052c0.337-0.706,0.582-1.445,0.73-2.201c-0.588,0.115-1.192,0.176-1.805,0.176
		C62.356,65.978,61.75,65.917,61.16,65.801z"/>
	<path fill="#F1F2F2" d="M68.714,63.989c-0.541,0.426-1.121,0.789-1.734,1.083c-0.078,0.822-0.249,1.638-0.504,2.432
		c1.352-0.437,2.616-1.126,3.728-2.046c-0.206-0.255-0.425-0.5-0.66-0.734C69.28,64.459,69.002,64.216,68.714,63.989z"/>
	<path fill="#F1F2F2" d="M53.768,50.002c-0.707,0.97-1.249,2.038-1.615,3.168c0.784-0.254,1.598-0.423,2.431-0.502
		c0.175-0.367,0.377-0.722,0.601-1.063c-0.085-0.08-0.171-0.159-0.254-0.242C54.503,50.937,54.117,50.48,53.768,50.002z"/>
	<path fill="#F1F2F2" d="M63.771,45.341c-0.265-0.018-0.531-0.031-0.8-0.031c-0.268,0-0.534,0.012-0.799,0.031
		c-1.68,1.177-3.639,1.873-5.708,2.016c-0.447,0.313-0.875,0.661-1.279,1.042c0.349,0.533,0.754,1.034,1.214,1.496
		c0.038,0.037,0.076,0.071,0.114,0.107c1.742-1.686,4.028-2.614,6.458-2.614c2.431,0,4.717,0.928,6.46,2.614
		c0.037-0.037,0.076-0.071,0.113-0.107c0.461-0.461,0.866-0.962,1.215-1.496c-0.405-0.381-0.833-0.729-1.28-1.042
		C67.41,47.214,65.45,46.518,63.771,45.341z"/>
	<path fill="#F1F2F2" d="M71.683,36.015c-0.212,0.252-0.435,0.499-0.67,0.734c-0.26,0.26-0.53,0.504-0.809,0.735
		c1.335,1.649,2.062,3.687,2.062,5.838c0,0.616-0.059,1.222-0.175,1.812c0.765-0.15,1.503-0.396,2.202-0.731
		c0.034-0.357,0.052-0.717,0.052-1.081C74.344,40.618,73.404,38.06,71.683,36.015z"/>
	<path fill="#F1F2F2" d="M56.513,50.002c-0.038,0.037-0.076,0.071-0.114,0.107c-0.46,0.461-0.865,0.963-1.214,1.496
		c0.404,0.38,0.832,0.728,1.279,1.043c2.069,0.142,4.029,0.838,5.708,2.016c0.265,0.017,0.531,0.03,0.799,0.03
		s0.534-0.014,0.799-0.03c1.68-1.178,3.639-1.874,5.708-2.016c0.447-0.315,0.875-0.663,1.279-1.043
		c-0.349-0.533-0.754-1.035-1.215-1.496c-0.037-0.036-0.076-0.071-0.113-0.107c-1.743,1.687-4.029,2.616-6.459,2.616
		C60.541,52.618,58.254,51.688,56.513,50.002z"/>
	<path fill="#F1F2F2" d="M70.759,48.399c0.085,0.08,0.171,0.159,0.254,0.242c0.427,0.426,0.813,0.882,1.163,1.361
		c0.707-0.97,1.249-2.037,1.615-3.168c-0.784,0.253-1.598,0.424-2.432,0.502C71.183,47.702,70.982,48.057,70.759,48.399z"/>
	<path fill="#F1F2F2" d="M52.153,46.834c0.366,1.131,0.908,2.198,1.615,3.168c0.349-0.479,0.736-0.935,1.163-1.361
		c0.083-0.083,0.168-0.162,0.254-0.242c-0.224-0.342-0.425-0.697-0.601-1.063C53.75,47.258,52.937,47.087,52.153,46.834z"/>
	<path fill="#F1F2F2" d="M68.714,36.015c0.288-0.228,0.566-0.471,0.83-0.734c0.234-0.235,0.454-0.481,0.66-0.735
		c-1.112-0.92-2.375-1.608-3.728-2.044c0.256,0.792,0.426,1.608,0.504,2.43C67.593,35.225,68.173,35.589,68.714,36.015z"/>
	<path fill="#F1F2F2" d="M64.777,34.202c-0.149-0.755-0.393-1.495-0.73-2.201c-0.355-0.033-0.714-0.051-1.075-0.051
		c-0.363,0-0.724,0.018-1.081,0.051c-0.335,0.698-0.582,1.437-0.731,2.202c0.59-0.116,1.196-0.176,1.812-0.176
		C63.584,34.028,64.188,34.087,64.777,34.202z"/>
	<path fill="#F1F2F2" d="M51.651,44.403c0.698,0.335,1.436,0.581,2.202,0.731c-0.116-0.59-0.176-1.196-0.176-1.812
		c0-2.151,0.727-4.189,2.063-5.838c-0.28-0.23-0.549-0.475-0.809-0.735c-0.236-0.236-0.458-0.482-0.671-0.734
		c-0.217,0.259-0.421,0.525-0.614,0.799c-0.143,2.069-0.837,4.028-2.015,5.708c-0.018,0.265-0.03,0.531-0.03,0.8
		C51.6,43.685,51.618,44.045,51.651,44.403z"/>
	<path fill="#F1F2F2" d="M57.229,36.015c0.54-0.425,1.119-0.788,1.729-1.081c0.078-0.833,0.248-1.647,0.501-2.432
		c-1.35,0.437-2.609,1.125-3.72,2.043c0.206,0.254,0.425,0.5,0.66,0.735C56.663,35.544,56.941,35.788,57.229,36.015z"/>
	<path fill="#F1F2F2" d="M64.777,37.829c0.766-0.15,1.505-0.396,2.203-0.73c0.068-0.72,0.068-1.446,0-2.167
		c-0.698-0.334-1.437-0.58-2.203-0.729C65.014,35.398,65.014,36.632,64.777,37.829z"/>
	<path fill="#F1F2F2" d="M50.588,28.229c0.342-0.224,0.696-0.425,1.063-0.601c0.078-0.833,0.248-1.646,0.501-2.431
		c-1.131,0.365-2.198,0.908-3.167,1.615c0.478,0.349,0.934,0.735,1.36,1.163C50.429,28.057,50.508,28.144,50.588,28.229z"/>
	<path fill="#F1F2F2" d="M62.971,41.757c0.228,0.288,0.471,0.566,0.735,0.831c0.234,0.234,0.479,0.453,0.734,0.66
		c0.929-1.126,1.606-2.39,2.036-3.718c-0.784,0.253-1.597,0.422-2.429,0.5C63.757,40.634,63.398,41.214,62.971,41.757z"/>
	<path fill="#F1F2F2" d="M48.985,45.219c0.97,0.707,2.037,1.249,3.168,1.615c-0.254-0.784-0.424-1.598-0.501-2.431
		c-0.367-0.176-0.721-0.376-1.063-0.601c-0.08,0.085-0.159,0.171-0.242,0.254C49.919,44.483,49.463,44.871,48.985,45.219z"/>
	<path fill="#F1F2F2" d="M44.324,35.216c-0.019,0.264-0.031,0.531-0.031,0.799c0,0.269,0.012,0.535,0.031,0.799
		c1.177,1.68,1.873,3.639,2.015,5.708c0.314,0.448,0.662,0.875,1.042,1.28c0.533-0.349,1.035-0.754,1.496-1.215
		c0.037-0.037,0.072-0.076,0.108-0.113c-1.686-1.743-2.615-4.029-2.615-6.459c0-2.43,0.929-4.716,2.615-6.459
		c-0.036-0.038-0.071-0.077-0.108-0.113c-0.46-0.461-0.963-0.866-1.495-1.214c-0.381,0.404-0.729,0.832-1.043,1.28
		C46.196,31.576,45.501,33.536,44.324,35.216z"/>
	<path fill="#F1F2F2" d="M61.502,43.248c-1.648,1.335-3.687,2.063-5.837,2.063c-0.615,0-1.222-0.06-1.812-0.176
		c0.15,0.765,0.396,1.504,0.731,2.202c0.357,0.033,0.717,0.052,1.081,0.052c0.268,0,0.534-0.013,0.799-0.031
		c1.68-1.178,3.64-1.874,5.708-2.016c0.274-0.192,0.541-0.396,0.799-0.614c-0.252-0.211-0.499-0.434-0.735-0.67
		C61.978,43.797,61.733,43.527,61.502,43.248z"/>
	<path fill="#F1F2F2" d="M62.971,30.273c0.427,0.543,0.786,1.123,1.075,1.728c0.833,0.078,1.646,0.247,2.429,0.5
		c-0.43-1.329-1.106-2.592-2.036-3.718c-0.254,0.207-0.5,0.426-0.734,0.66C63.442,29.707,63.199,29.985,62.971,30.273z"/>
	<path fill="#F1F2F2" d="M61.502,28.782c0.23-0.278,0.476-0.549,0.734-0.808c0.236-0.236,0.482-0.458,0.735-0.671
		c-2.045-1.721-4.604-2.66-7.307-2.66c-0.364,0-0.724,0.018-1.081,0.052c-0.334,0.698-0.581,1.436-0.731,2.201
		c0.59-0.116,1.197-0.175,1.812-0.175C57.815,26.721,59.854,27.447,61.502,28.782z"/>
	<path fill="#F1F2F2" d="M62.971,30.273c-0.226-0.288-0.469-0.565-0.734-0.83c-0.234-0.235-0.48-0.455-0.734-0.661
		c-0.919,1.111-1.606,2.371-2.043,3.721c0.785-0.253,1.598-0.423,2.432-0.501C62.184,31.391,62.545,30.813,62.971,30.273z"/>
	<path fill="#F1F2F2" d="M62.972,27.303c0.252,0.212,0.499,0.435,0.734,0.671c0.26,0.26,0.504,0.531,0.734,0.809
		c1.648-1.336,3.687-2.063,5.838-2.063c0.615,0,1.222,0.06,1.812,0.176c-0.151-0.765-0.396-1.503-0.731-2.202
		c-0.357-0.033-0.718-0.051-1.081-0.051C67.574,24.644,65.016,25.583,62.972,27.303z"/>
	<path fill="#F1F2F2" d="M76.851,29.443c1.755,1.755,2.722,4.089,2.722,6.572s-0.967,4.817-2.722,6.573
		c-0.757,0.757-1.621,1.366-2.559,1.815c-0.078,0.833-0.249,1.647-0.501,2.431c1.689-0.546,3.237-1.486,4.529-2.777
		c2.148-2.148,3.331-5.003,3.331-8.042c0-3.038-1.183-5.893-3.331-8.041c-1.292-1.292-2.84-2.231-4.529-2.777
		c0.253,0.784,0.423,1.598,0.501,2.431C75.229,28.078,76.094,28.686,76.851,29.443z"/>
	<path fill="#F1F2F2" d="M64.44,43.248c-0.229,0.277-0.474,0.549-0.734,0.809c-0.236,0.236-0.482,0.458-0.734,0.67
		c0.258,0.218,0.525,0.422,0.799,0.614c2.069,0.143,4.028,0.838,5.708,2.016c0.265,0.018,0.531,0.031,0.799,0.031
		c0.363,0,0.724-0.019,1.081-0.052c0.335-0.698,0.581-1.438,0.731-2.202c-0.59,0.116-1.196,0.176-1.812,0.176
		C68.127,45.31,66.088,44.583,64.44,43.248z"/>
	<path fill="#F1F2F2" d="M58.958,37.096c0.698,0.334,1.437,0.581,2.202,0.731c-0.116-0.59-0.176-1.196-0.176-1.812
		c0-0.615,0.06-1.221,0.176-1.812c-0.765,0.15-1.504,0.396-2.202,0.731c-0.034,0.357-0.052,0.717-0.052,1.081
		S58.924,36.739,58.958,37.096z"/>
	<path fill="#F1F2F2" d="M59.459,39.527c0.437,1.35,1.125,2.611,2.043,3.721c0.254-0.206,0.5-0.425,0.734-0.66
		c0.265-0.265,0.508-0.543,0.734-0.831c-0.426-0.539-0.788-1.118-1.08-1.729C61.057,39.951,60.244,39.781,59.459,39.527z"/>
	<path fill="#F1F2F2" d="M51.63,29.508c1.178,1.679,1.873,3.639,2.015,5.708c0.192,0.274,0.396,0.541,0.614,0.799
		c0.213-0.252,0.435-0.498,0.671-0.734c0.259-0.259,0.529-0.504,0.809-0.735c-1.335-1.648-2.063-3.687-2.063-5.837
		c0-0.616,0.06-1.222,0.176-1.813c-0.766,0.15-1.504,0.396-2.202,0.731c-0.033,0.357-0.051,0.718-0.051,1.082
		C51.6,28.977,51.612,29.243,51.63,29.508z"/>
	<path fill="#F1F2F2" d="M70.204,34.546c0.279,0.231,0.549,0.476,0.809,0.735c0.236,0.236,0.458,0.482,0.67,0.734
		c1.721-2.044,2.661-4.603,2.661-7.307c0-0.363-0.018-0.724-0.052-1.081c-0.698-0.334-1.437-0.581-2.202-0.731
		c0.116,0.591,0.175,1.197,0.175,1.812C72.266,30.859,71.539,32.898,70.204,34.546z"/>
	<path fill="#F1F2F2" d="M68.714,36.015c-0.541,0.427-1.121,0.791-1.734,1.083c-0.078,0.823-0.248,1.638-0.504,2.431
		c1.353-0.437,2.616-1.125,3.728-2.045c-0.206-0.254-0.425-0.5-0.66-0.735C69.28,36.486,69.002,36.243,68.714,36.015z"/>
	<path fill="#F1F2F2" d="M56.399,22.136c1.756-1.755,4.09-2.722,6.573-2.722c2.482,0,4.816,0.967,6.572,2.722
		c0.756,0.757,1.366,1.621,1.815,2.559c0.834,0.078,1.647,0.249,2.432,0.502c-0.547-1.689-1.486-3.238-2.778-4.529
		c-2.148-2.147-5.004-3.331-8.041-3.331c-3.038,0-5.893,1.183-8.041,3.331c-1.292,1.292-2.231,2.84-2.778,4.529
		c0.784-0.253,1.598-0.424,2.431-0.501C55.034,23.757,55.643,22.893,56.399,22.136z"/>
	<path fill="#F1F2F2" d="M58.958,37.096c-0.611-0.292-1.189-0.656-1.729-1.081c-0.288,0.228-0.565,0.471-0.83,0.734
		c-0.234,0.235-0.454,0.481-0.66,0.735c1.11,0.919,2.37,1.606,3.72,2.042C59.206,38.743,59.036,37.93,58.958,37.096z"/>
	<path fill="#F1F2F2" d="M61.16,37.827c0.15,0.765,0.396,1.503,0.731,2.202c0.357,0.034,0.717,0.052,1.081,0.052
		c0.361,0,0.719-0.018,1.075-0.051c0.337-0.706,0.582-1.446,0.73-2.201c-0.588,0.116-1.192,0.175-1.805,0.175
		C62.356,38.003,61.75,37.944,61.16,37.827z"/>
</g>
<g>
	<path fill="#F1F2F2" d="M153.46,31.228l0.245,0.218v1.335l-0.218,0.191c-1.999,0.054-3.238,0.155-3.719,0.299
		c-0.482,0.146-0.823,0.387-1.022,0.722c-0.2,0.336-0.313,0.995-0.341,1.976c-0.027,0.981-0.078,3.751-0.149,8.311v12.563
		c0,1.816,0.027,3.869,0.082,6.157c0.054,2.289,0.167,3.621,0.34,3.991c0.173,0.374,0.486,0.646,0.94,0.818
		c0.454,0.173,1.744,0.286,3.869,0.341l0.218,0.19v1.337l-0.245,0.217c-2.961-0.163-5.541-0.245-7.738-0.245
		c-1.491,0-4.024,0.082-7.603,0.245l-0.245-0.217v-1.31l0.218-0.218c1.998-0.055,3.238-0.153,3.719-0.3
		c0.481-0.146,0.822-0.387,1.021-0.723c0.2-0.335,0.318-1.003,0.354-2.002s0.082-3.761,0.136-8.283V36.841l-9.401,19.674
		c-2.361,4.922-4.423,9.556-6.185,13.896h-1.063c-1.017-2.343-1.853-4.214-2.506-5.613L111.143,37.74v19.047
		c0,1.78,0.022,3.828,0.068,6.144c0.045,2.316,0.159,3.657,0.341,4.02c0.182,0.364,0.5,0.637,0.954,0.818
		c0.454,0.181,1.744,0.29,3.87,0.326l0.218,0.219v1.308l-0.245,0.245l-1.744-0.081c-1.798-0.093-3.343-0.137-4.632-0.137
		c-0.582,0-2.752,0.071-6.512,0.218l-0.218-0.218V68.34l0.218-0.245c1.998-0.036,3.233-0.127,3.706-0.272s0.813-0.39,1.022-0.736
		c0.208-0.344,0.327-0.989,0.354-1.935c0.027-0.944,0.068-3.731,0.122-8.364v-12.48c0-1.652-0.023-3.665-0.067-6.035
		c-0.046-2.371-0.155-3.742-0.327-4.114c-0.173-0.372-0.486-0.649-0.94-0.832c-0.455-0.181-1.744-0.291-3.869-0.327l-0.218-0.218
		v-1.308l0.245-0.245c1.254,0.09,2.943,0.136,5.069,0.136c1.998,0,3.742-0.045,5.231-0.136c1.526,3.524,2.988,6.712,4.387,9.564
		L128.5,61.991l9.319-19.428c2.524-5.249,4.223-9.028,5.094-11.335c1.745,0.09,3.461,0.136,5.15,0.136
		C149.591,31.364,151.389,31.318,153.46,31.228z"/>
	<path fill="#F1F2F2" d="M156.839,57.169c0-2.162,0.445-4.247,1.335-6.254c0.89-2.008,2.439-3.742,4.646-5.205
		c2.207-1.462,4.827-2.193,7.861-2.193c3.815,0,6.921,1.204,9.319,3.611c2.397,2.407,3.597,5.5,3.597,9.278
		c0,4.16-1.376,7.585-4.128,10.272c-2.752,2.688-6.073,4.032-9.96,4.032c-2.543,0-4.813-0.685-6.812-2.058
		c-1.999-1.37-3.474-3.046-4.428-5.026C157.315,61.646,156.839,59.494,156.839,57.169z M161.989,55.287
		c0,2.544,0.327,4.819,0.981,6.826c0.654,2.008,1.689,3.62,3.106,4.837c1.417,1.217,3.033,1.826,4.85,1.826
		c2.144,0,3.915-0.849,5.313-2.548c1.398-1.698,2.099-4.255,2.099-7.67c0-3.87-0.759-7.039-2.276-9.511
		c-1.517-2.47-3.701-3.705-6.553-3.705c-2.361,0-4.205,0.854-5.531,2.561C162.651,49.611,161.989,52.073,161.989,55.287z"/>
	<path fill="#F1F2F2" d="M203.788,32.699v-1.144l0.219-0.245c3.468-0.399,6.393-1.072,8.772-2.017l0.519,0.327
		c-0.2,2.089-0.3,6.276-0.3,12.562V60.03c0,1.834,0.031,3.438,0.096,4.809c0.063,1.371,0.177,2.184,0.341,2.438
		c0.163,0.255,0.431,0.464,0.803,0.627c0.373,0.164,1.43,0.318,3.175,0.463l0.245,0.217v1.037l-0.245,0.245
		c-1.962-0.127-3.487-0.189-4.577-0.189c-0.98,0-2.38,0.063-4.196,0.189l-0.301-0.3c0.056-1.78,0.082-3.024,0.082-3.733
		c0-0.09,0.01-0.437,0.027-1.035c-0.999,0.728-1.998,1.536-2.997,2.425c-1.472,1.308-2.435,2.126-2.888,2.454
		c-0.836,0.417-2.026,0.625-3.57,0.625c-2.507,0-4.637-0.617-6.39-1.853c-1.754-1.234-3.003-2.812-3.748-4.728
		s-1.117-3.883-1.117-5.899c0-2.053,0.385-4.028,1.158-5.927c0.772-1.898,1.871-3.283,3.297-4.155
		c1.425-0.872,2.979-1.775,4.659-2.711c1.68-0.936,3.347-1.404,5-1.404c2.307,0,4.505,0.572,6.594,1.717l-0.109-6.077
		c-0.035-2.106-0.09-3.573-0.162-4.401c-0.074-0.826-0.164-1.317-0.273-1.471c-0.109-0.154-0.296-0.268-0.56-0.341
		c-0.263-0.072-1.366-0.109-3.309-0.109L203.788,32.699z M208.447,50.002c-1.127-1.272-2.375-2.244-3.747-2.916
		c-1.371-0.672-2.747-1.009-4.128-1.009c-1.526,0-2.947,0.414-4.264,1.24c-1.317,0.827-2.267,2.053-2.848,3.679
		c-0.582,1.625-0.872,3.391-0.872,5.299c0,3.18,0.804,5.732,2.411,7.657c1.608,1.927,3.628,2.889,6.063,2.889
		c1.324,0,2.502-0.305,3.527-0.913c1.026-0.608,1.872-1.431,2.535-2.466c0.664-1.036,1.05-2.071,1.157-3.106
		c0.11-1.036,0.164-2.933,0.164-5.695V50.002z"/>
	<path fill="#F1F2F2" d="M228.965,43.681l0.518,0.354c-0.199,2.38-0.298,5.404-0.298,9.073v6.35c0,2.326,0.176,3.942,0.529,4.851
		c0.354,0.908,0.97,1.604,1.841,2.085c0.872,0.481,1.906,0.722,3.105,0.722c1.326,0,2.534-0.26,3.625-0.776
		c1.089-0.519,2.003-1.25,2.737-2.194c0.736-0.944,1.159-1.58,1.268-1.907s0.182-1.244,0.219-2.752l0.08-3.052v-2.943
		c0-0.726-0.036-1.716-0.107-2.97c-0.073-1.253-0.132-2.025-0.178-2.316s-0.187-0.504-0.422-0.641
		c-0.237-0.137-0.709-0.204-1.417-0.204l-2.289-0.028l-0.245-0.217v-1.172l0.217-0.218c3.47-0.417,6.395-1.099,8.774-2.043
		l0.518,0.354c-0.2,2.38-0.3,5.404-0.3,9.073v4.797c0,0.273,0.046,2.497,0.137,6.676c0.037,1.544,0.132,2.484,0.285,2.819
		c0.156,0.337,0.369,0.573,0.642,0.709c0.272,0.137,1.081,0.205,2.425,0.205h0.764l0.245,0.217v1.091l-0.218,0.245
		c-2.562-0.146-4.279-0.218-5.15-0.218c-1.109,0-2.389,0.063-3.843,0.19l-0.244-0.218c0.108-1.853,0.19-3.424,0.244-4.714
		c-1.144,0.89-2.451,2.08-3.924,3.569c-0.563,0.563-1.372,1.036-2.425,1.417c-1.054,0.381-2.253,0.572-3.597,0.572
		c-2.035,0-3.618-0.323-4.755-0.968c-1.136-0.646-1.939-1.534-2.411-2.671c-0.473-1.135-0.709-3.093-0.709-5.871l0.028-2.153v-5.313
		c0-0.726-0.038-1.716-0.109-2.97c-0.073-1.253-0.132-2.025-0.178-2.316c-0.045-0.291-0.186-0.504-0.423-0.641
		c-0.234-0.137-0.708-0.204-1.416-0.204l-2.289-0.028l-0.245-0.217v-1.172l0.217-0.218
		C223.661,45.306,226.585,44.625,228.965,43.681z"/>
	<path fill="#F1F2F2" d="M263.381,29.293l0.518,0.327c-0.2,2.089-0.3,6.276-0.3,12.562v17.085c0,0.399,0.036,1.685,0.109,3.855
		s0.149,3.438,0.232,3.801c0.08,0.363,0.203,0.627,0.366,0.791s0.364,0.268,0.6,0.313c0.236,0.044,1.217,0.122,2.942,0.23
		l0.246,0.219v1.145l-0.218,0.245c-2.271-0.146-4.46-0.218-6.567-0.218c-2.09,0-4.27,0.071-6.539,0.218l-0.245-0.245v-1.145
		l0.245-0.219c1.761-0.108,2.756-0.189,2.983-0.244c0.227-0.055,0.427-0.168,0.598-0.342c0.174-0.172,0.292-0.436,0.355-0.79
		c0.063-0.353,0.136-1.525,0.219-3.514c0.081-1.99,0.122-3.493,0.122-4.511V44.743l-0.109-5.777
		c-0.054-2.016-0.113-3.415-0.176-4.197c-0.064-0.78-0.151-1.244-0.26-1.389c-0.109-0.146-0.3-0.254-0.571-0.327
		c-0.272-0.072-1.373-0.109-3.298-0.109l-0.245-0.246v-1.144l0.219-0.245C258.076,30.91,261,30.238,263.381,29.293z"/>
	<path fill="#F1F2F2" d="M275.207,51.174l-1.063-0.272l-0.218-0.273V47.25c3.233-2.397,6.376-3.597,9.428-3.597
		c2.089,0,3.824,0.391,5.204,1.171c1.381,0.782,2.38,1.758,2.997,2.93c0.618,1.171,0.928,2.539,0.928,4.101l-0.137,5.478v8.12
		c0,1.108,0.077,1.78,0.232,2.016c0.152,0.236,0.331,0.396,0.529,0.477c0.201,0.083,0.574,0.15,1.119,0.205l1.552,0.137l0.22,0.244
		v1.091l-0.22,0.218c-1.325-0.108-2.562-0.162-3.705-0.162c-1.089,0-2.398,0.054-3.924,0.162l-0.407-0.381l0.107-4.388l-5.94,4.633
		c-0.999,0.418-2.089,0.626-3.27,0.626c-1.454,0-2.701-0.264-3.745-0.789c-1.047-0.528-1.846-1.264-2.4-2.208
		c-0.554-0.944-0.83-2.089-0.83-3.434c0-2.669,0.835-4.755,2.507-6.254c1.671-1.498,6.23-2.774,13.679-3.827
		c0-2.689-0.599-4.583-1.799-5.682c-1.198-1.099-2.805-1.648-4.822-1.648c-1.054,0-2.012,0.155-2.875,0.463
		c-0.862,0.309-1.358,0.558-1.484,0.749c-0.128,0.191-0.619,1.304-1.472,3.338L275.207,51.174z M287.85,55.479
		c-5.086,0.853-8.257,1.77-9.51,2.752c-1.254,0.98-1.88,2.497-1.88,4.55c0,2.834,1.407,4.251,4.224,4.251
		c2.415,0,4.806-1.399,7.166-4.197V55.479z"/>
	<path fill="#F1F2F2" d="M331.584,45.697l-0.518,2.289l-0.218,0.245c-0.928-0.018-1.954-0.027-3.08-0.027
		c-1.018,0-2.324,0.009-3.923,0.027l-0.164,11.09c0,2.708,0.077,4.451,0.231,5.231c0.154,0.782,0.505,1.364,1.05,1.745
		s1.298,0.571,2.261,0.571c1.218,0,2.343-0.316,3.379-0.952l0.653,0.979c-0.436,0.309-1.479,1.218-3.134,2.726
		c-0.944,0.436-1.906,0.653-2.888,0.653c-4.086,0-6.131-1.979-6.131-5.939l0.137-4.66V48.23h-11.881l-0.163,11.09
		c0,2.708,0.077,4.451,0.231,5.231c0.154,0.782,0.504,1.364,1.05,1.745c0.544,0.381,1.299,0.571,2.261,0.571
		c1.218,0,2.344-0.316,3.378-0.952l0.655,0.979c-0.436,0.309-1.481,1.218-3.134,2.726c-0.944,0.436-1.907,0.653-2.888,0.653
		c-4.088,0-6.132-1.979-6.132-5.939l0.137-4.66V48.367h-1.117c-0.818,0-1.753,0.037-2.808,0.109l-0.244-0.218V47.55l0.19-0.272
		c1.708-0.636,3.088-1.227,4.142-1.771c0-4.742-0.055-7.503-0.163-8.284c1.871-0.654,3.405-1.353,4.604-2.098l0.654,0.545
		c-0.182,1.181-0.399,4.46-0.654,9.837h11.962c0-5.141-0.026-7.902-0.081-8.284c1.871-0.654,3.406-1.353,4.605-2.098l0.653,0.545
		c-0.183,1.145-0.399,4.469-0.653,9.973c0.907,0.018,1.889,0.027,2.941,0.027c2.145,0,3.679-0.055,4.606-0.163L331.584,45.697z"/>
	<path fill="#F1F2F2" d="M342.184,43.681l0.518,0.354c-0.2,2.38-0.3,5.404-0.3,9.073v6.159c0,0.399,0.037,1.685,0.109,3.855
		s0.149,3.438,0.23,3.801c0.082,0.363,0.205,0.627,0.368,0.791c0.164,0.164,0.364,0.268,0.6,0.313
		c0.236,0.044,1.217,0.122,2.943,0.23l0.245,0.219v1.145l-0.217,0.245c-2.272-0.146-4.461-0.218-6.567-0.218
		c-2.091,0-4.27,0.071-6.54,0.218l-0.246-0.245v-1.145l0.246-0.219c1.762-0.108,2.756-0.189,2.983-0.244
		c0.227-0.055,0.427-0.168,0.6-0.342c0.173-0.172,0.29-0.436,0.354-0.79c0.064-0.353,0.137-1.525,0.218-3.514
		c0.082-1.99,0.123-3.493,0.123-4.511v-5.368c0-0.726-0.036-1.716-0.108-2.97c-0.072-1.253-0.132-2.025-0.178-2.316
		c-0.045-0.291-0.187-0.504-0.422-0.641c-0.237-0.137-0.708-0.204-1.416-0.204l-2.29-0.028l-0.245-0.217v-1.172l0.219-0.218
		C336.879,45.306,339.804,44.625,342.184,43.681z M339.867,31.5c0.854,0,1.581,0.3,2.18,0.899c0.6,0.6,0.899,1.326,0.899,2.18
		c0,0.835-0.3,1.553-0.899,2.152c-0.599,0.6-1.326,0.899-2.18,0.899c-0.835,0-1.559-0.295-2.167-0.886
		c-0.608-0.59-0.911-1.312-0.911-2.166s0.303-1.58,0.911-2.18S339.032,31.5,339.867,31.5z"/>
	<path fill="#F1F2F2" d="M371.912,66.731l-1.091,1.826c-2.343,1.291-4.958,1.936-7.849,1.936c-3.996,0-7.083-1.19-9.264-3.57
		c-2.18-2.379-3.27-5.449-3.27-9.21c0-1.707,0.187-3.229,0.559-4.564c0.372-1.334,0.845-2.438,1.417-3.31
		c0.572-0.872,1.203-1.563,1.894-2.071c0.691-0.508,1.857-1.216,3.502-2.125c1.644-0.908,2.884-1.503,3.719-1.785
		s1.99-0.423,3.461-0.423c2.816,0,5.123,0.537,6.922,1.608c-0.347,2.053-0.609,4.342-0.79,6.867l-0.247,0.219h-1.116l-0.246-0.246
		c-0.071-1.526-0.172-2.552-0.299-3.079c-0.128-0.527-0.849-1.09-2.166-1.689s-2.721-0.899-4.21-0.899
		c-1.49,0-2.816,0.313-3.979,0.94s-2.039,1.653-2.63,3.08c-0.59,1.425-0.885,3.128-0.885,5.11c0,1.671,0.236,3.3,0.708,4.89
		c0.473,1.59,1.095,2.906,1.867,3.951c0.771,1.046,1.794,1.886,3.065,2.521c1.271,0.636,2.688,0.954,4.25,0.954
		c0.981,0,1.938-0.127,2.875-0.382c0.936-0.255,2.012-0.672,3.229-1.254L371.912,66.731z"/>
	<path fill="#F1F2F2" d="M397.116,65.643l-0.872,1.962c-1.89,1.217-3.574,2.008-5.054,2.37c-1.481,0.363-2.803,0.545-3.965,0.545
		c-2.181,0-4.247-0.426-6.199-1.28c-1.954-0.853-3.543-2.297-4.769-4.332s-1.84-4.486-1.84-7.357c0-1.907,0.236-3.629,0.709-5.163
		c0.472-1.536,0.968-2.675,1.485-3.42c0.517-0.745,1.394-1.571,2.629-2.479s2.544-1.635,3.924-2.18
		c1.38-0.544,2.87-0.817,4.47-0.817c2.179,0,4.1,0.514,5.762,1.54c1.663,1.026,2.83,2.339,3.502,3.937
		c0.671,1.599,1.008,3.297,1.008,5.096c0,0.563-0.026,1.107-0.082,1.635l-0.299,0.299c-1.236,0.272-2.898,0.455-4.986,0.545
		c-2.091,0.092-3.47,0.137-4.143,0.137h-8.746c0.035,3.76,0.98,6.531,2.833,8.311c1.853,1.781,4.124,2.671,6.813,2.671
		c1.271,0,2.492-0.218,3.664-0.654s2.412-1.044,3.72-1.825L397.116,65.643z M379.65,54.498c0.326,0.054,1.585,0.117,3.773,0.19
		c2.188,0.074,3.81,0.109,4.863,0.109c2.525,0,4.061-0.046,4.605-0.137c0.019-0.436,0.026-0.772,0.026-1.008
		c0-2.816-0.571-4.91-1.716-6.281c-1.146-1.372-2.707-2.058-4.687-2.058c-2.161,0-3.847,0.773-5.054,2.316
		C380.254,49.175,379.65,51.464,379.65,54.498z"/>
</g>
</svg>
